<svg width="28" height="28" viewBox="0 0 28 28" fill="none" xmlns="http://www.w3.org/2000/svg">
<path d="M12.3015 4.7317C13.0841 3.47308 14.9159 3.47308 15.6985 4.7317L24.2242 18.444C25.0526 19.7762 24.0945 21.5 22.5258 21.5H5.47424C3.90546 21.5 2.94743 19.7762 3.77577 18.444L12.3015 4.7317Z" fill="#FAFF00"/>
<path d="M14.9883 15.288C14.9643 15 14.9643 14.892 14.9643 14.76C14.9643 14.568 14.9763 14.292 15.0003 13.812L15.2403 10.008C15.2883 9.36 15.3243 8.856 15.3843 8.388H12.5883C12.6363 8.76 12.6963 9.408 12.7323 10.008L12.9723 13.812C13.0203 14.532 13.0203 14.532 13.0203 14.664C13.0203 14.94 13.0203 15.012 12.9963 15.288H14.9883ZM15.2043 18.372V16.104H12.7923V18.372H15.2043Z" fill="black"/>
</svg>
